<svg width="32" height="32" viewBox="0 0 32 32" fill="none" xmlns="http://www.w3.org/2000/svg">
<path d="M4.00001 17.3338H5.33334V26.6671C5.33334 28.1378 6.52934 29.3338 8.00001 29.3338H24C25.4707 29.3338 26.6667 28.1378 26.6667 26.6671V17.3338H28C28.2637 17.3338 28.5214 17.2555 28.7406 17.109C28.9598 16.9625 29.1307 16.7543 29.2316 16.5107C29.3325 16.2671 29.3589 15.999 29.3075 15.7404C29.256 15.4818 29.1291 15.2443 28.9427 15.0578L16.9427 3.0578C16.819 2.93388 16.672 2.83556 16.5103 2.76848C16.3485 2.7014 16.1751 2.66687 16 2.66687C15.8249 2.66687 15.6515 2.7014 15.4898 2.76848C15.328 2.83556 15.1811 2.93388 15.0573 3.0578L3.05734 15.0578C2.87093 15.2443 2.74399 15.4818 2.69257 15.7404C2.64114 15.999 2.66755 16.2671 2.76844 16.5107C2.86933 16.7543 3.04019 16.9625 3.2594 17.109C3.47861 17.2555 3.73634 17.3338 4.00001 17.3338ZM13.3333 26.6671V20.0005H18.6667V26.6671H13.3333ZM16 5.88581L24 13.8858V20.0005L24.0013 26.6671H21.3333V20.0005C21.3333 18.5298 20.1373 17.3338 18.6667 17.3338H13.3333C11.8627 17.3338 10.6667 18.5298 10.6667 20.0005V26.6671H8.00001V13.8858L16 5.88581Z" fill="white"/>
</svg>
