<svg width="32" height="32" viewBox="0 0 32 32" fill="none" xmlns="http://www.w3.org/2000/svg">
<path d="M28 6.66663H4.00002C3.6464 6.66663 3.30726 6.8071 3.05721 7.05715C2.80716 7.3072 2.66669 7.64634 2.66669 7.99996V13.3333H3.85735C5.18535 13.3333 6.41735 14.2413 6.63069 15.552C6.69568 15.9347 6.67637 16.327 6.57411 16.7014C6.47185 17.0759 6.2891 17.4236 6.03861 17.7202C5.78813 18.0167 5.47594 18.2551 5.12384 18.4185C4.77175 18.582 4.38822 18.6667 4.00002 18.6666H2.66669V24C2.66669 24.3536 2.80716 24.6927 3.05721 24.9428C3.30726 25.1928 3.6464 25.3333 4.00002 25.3333H28C28.3536 25.3333 28.6928 25.1928 28.9428 24.9428C29.1929 24.6927 29.3334 24.3536 29.3334 24V18.6666H28C27.6118 18.6667 27.2283 18.582 26.8762 18.4185C26.5241 18.2551 26.2119 18.0167 25.9614 17.7202C25.7109 17.4236 25.5282 17.0759 25.4259 16.7014C25.3237 16.327 25.3044 15.9347 25.3694 15.552C25.5827 14.2413 26.8147 13.3333 28.1427 13.3333H29.3334V7.99996C29.3334 7.64634 29.1929 7.3072 28.9428 7.05715C28.6928 6.8071 28.3536 6.66663 28 6.66663ZM12 12C12.3536 12 12.6928 12.1404 12.9428 12.3905C13.1929 12.6405 13.3334 12.9797 13.3334 13.3333C13.3334 13.6869 13.1929 14.0261 12.9428 14.2761C12.6928 14.5262 12.3536 14.6666 12 14.6666C11.6464 14.6666 11.3073 14.5262 11.0572 14.2761C10.8072 14.0261 10.6667 13.6869 10.6667 13.3333C10.6667 12.9797 10.8072 12.6405 11.0572 12.3905C11.3073 12.1404 11.6464 12 12 12ZM10.9334 20.5333L18.9334 9.86663L21.0667 11.4666L13.0667 22.1333L10.9334 20.5333ZM20 20C19.6464 20 19.3073 19.8595 19.0572 19.6094C18.8072 19.3594 18.6667 19.0202 18.6667 18.6666C18.6667 18.313 18.8072 17.9739 19.0572 17.7238C19.3073 17.4738 19.6464 17.3333 20 17.3333C20.3536 17.3333 20.6928 17.4738 20.9428 17.7238C21.1929 17.9739 21.3334 18.313 21.3334 18.6666C21.3334 19.0202 21.1929 19.3594 20.9428 19.6094C20.6928 19.8595 20.3536 20 20 20Z" fill="white"/>
</svg>
